<mxfile host="app.diagrams.net" modified="2023-09-09T19:10:01.035Z" agent="Mozilla/5.0 (Windows NT 10.0; Win64; x64) AppleWebKit/537.36 (KHTML, like Gecko) Chrome/116.0.0.0 Safari/537.36" etag="-G-eBilp3zEXrTk8iXH1" version="21.7.4" type="github">
  <diagram name="PÃ¡gina-1" id="rDJxsvajIsDrFDwZ_sk5">
    <mxGraphModel dx="392" dy="692" grid="1" gridSize="10" guides="1" tooltips="1" connect="1" arrows="1" fold="1" page="1" pageScale="1" pageWidth="827" pageHeight="1169" math="0" shadow="0">
      <root>
        <mxCell id="0" />
        <mxCell id="1" parent="0" />
        <mxCell id="lF_DSzPqA_-cpZsPfv9T-3" value="" style="endArrow=none;html=1;rounded=0;" edge="1" parent="1">
          <mxGeometry width="50" height="50" relative="1" as="geometry">
            <mxPoint x="200" y="720" as="sourcePoint" />
            <mxPoint x="200" y="200" as="targetPoint" />
          </mxGeometry>
        </mxCell>
        <mxCell id="lF_DSzPqA_-cpZsPfv9T-8" value="&lt;font style=&quot;vertical-align: inherit;&quot;&gt;&lt;font style=&quot;vertical-align: inherit;&quot;&gt;&lt;font style=&quot;vertical-align: inherit;&quot;&gt;&lt;font style=&quot;vertical-align: inherit;&quot;&gt;Jogador&lt;/font&gt;&lt;/font&gt;&lt;/font&gt;&lt;/font&gt;" style="shape=umlActor;verticalLabelPosition=bottom;verticalAlign=top;html=1;outlineConnect=0;" vertex="1" parent="1">
          <mxGeometry x="100" y="480" width="30" height="60" as="geometry" />
        </mxCell>
        <mxCell id="lF_DSzPqA_-cpZsPfv9T-9" value="" style="endArrow=none;html=1;rounded=0;exitX=0.5;exitY=0.5;exitDx=0;exitDy=0;exitPerimeter=0;entryX=0;entryY=0.5;entryDx=0;entryDy=0;" edge="1" parent="1" source="lF_DSzPqA_-cpZsPfv9T-8" target="lF_DSzPqA_-cpZsPfv9T-10">
          <mxGeometry width="50" height="50" relative="1" as="geometry">
            <mxPoint x="160" y="510" as="sourcePoint" />
            <mxPoint x="340" y="310" as="targetPoint" />
          </mxGeometry>
        </mxCell>
        <mxCell id="lF_DSzPqA_-cpZsPfv9T-10" value="&lt;font style=&quot;vertical-align: inherit;&quot;&gt;&lt;font style=&quot;vertical-align: inherit;&quot;&gt;Iniciar Jogo&lt;/font&gt;&lt;/font&gt;" style="ellipse;whiteSpace=wrap;html=1;" vertex="1" parent="1">
          <mxGeometry x="335" y="260" width="90" height="60" as="geometry" />
        </mxCell>
        <mxCell id="lF_DSzPqA_-cpZsPfv9T-18" value="{Includ}" style="endArrow=open;endSize=12;dashed=1;html=1;rounded=0;exitX=0.5;exitY=1;exitDx=0;exitDy=0;entryX=0.5;entryY=0;entryDx=0;entryDy=0;" edge="1" parent="1" source="lF_DSzPqA_-cpZsPfv9T-10" target="lF_DSzPqA_-cpZsPfv9T-19">
          <mxGeometry width="160" relative="1" as="geometry">
            <mxPoint x="370" y="350" as="sourcePoint" />
            <mxPoint x="380" y="400" as="targetPoint" />
          </mxGeometry>
        </mxCell>
        <mxCell id="lF_DSzPqA_-cpZsPfv9T-19" value="Dificuldade" style="ellipse;whiteSpace=wrap;html=1;" vertex="1" parent="1">
          <mxGeometry x="335" y="400" width="90" height="60" as="geometry" />
        </mxCell>
        <mxCell id="lF_DSzPqA_-cpZsPfv9T-21" value="Medio" style="ellipse;whiteSpace=wrap;html=1;" vertex="1" parent="1">
          <mxGeometry x="340" y="520" width="80" height="40" as="geometry" />
        </mxCell>
        <mxCell id="lF_DSzPqA_-cpZsPfv9T-22" value="Dificil" style="ellipse;whiteSpace=wrap;html=1;" vertex="1" parent="1">
          <mxGeometry x="440" y="510" width="80" height="42.5" as="geometry" />
        </mxCell>
        <mxCell id="lF_DSzPqA_-cpZsPfv9T-23" value="Facil" style="ellipse;whiteSpace=wrap;html=1;rotation=0;direction=west;" vertex="1" parent="1">
          <mxGeometry x="240" y="510" width="80" height="40" as="geometry" />
        </mxCell>
        <mxCell id="lF_DSzPqA_-cpZsPfv9T-24" value="{Extend}" style="endArrow=open;endSize=12;dashed=1;html=1;rounded=0;exitX=0.056;exitY=0.75;exitDx=0;exitDy=0;exitPerimeter=0;entryX=0.5;entryY=1;entryDx=0;entryDy=0;" edge="1" parent="1" source="lF_DSzPqA_-cpZsPfv9T-19" target="lF_DSzPqA_-cpZsPfv9T-23">
          <mxGeometry width="160" relative="1" as="geometry">
            <mxPoint x="300" y="470" as="sourcePoint" />
            <mxPoint x="460" y="470" as="targetPoint" />
          </mxGeometry>
        </mxCell>
        <mxCell id="lF_DSzPqA_-cpZsPfv9T-25" value="{Extend}" style="endArrow=open;endSize=12;dashed=1;html=1;rounded=0;entryX=0.5;entryY=0;entryDx=0;entryDy=0;exitX=0.933;exitY=0.85;exitDx=0;exitDy=0;exitPerimeter=0;" edge="1" parent="1" source="lF_DSzPqA_-cpZsPfv9T-19" target="lF_DSzPqA_-cpZsPfv9T-22">
          <mxGeometry width="160" relative="1" as="geometry">
            <mxPoint x="320" y="500" as="sourcePoint" />
            <mxPoint x="480" y="500" as="targetPoint" />
          </mxGeometry>
        </mxCell>
        <mxCell id="lF_DSzPqA_-cpZsPfv9T-26" value="{Extend}" style="endArrow=open;endSize=12;dashed=1;html=1;rounded=0;exitX=0.5;exitY=1;exitDx=0;exitDy=0;" edge="1" parent="1" source="lF_DSzPqA_-cpZsPfv9T-19" target="lF_DSzPqA_-cpZsPfv9T-21">
          <mxGeometry width="160" relative="1" as="geometry">
            <mxPoint x="280" y="430" as="sourcePoint" />
            <mxPoint x="440" y="430" as="targetPoint" />
          </mxGeometry>
        </mxCell>
      </root>
    </mxGraphModel>
  </diagram>
</mxfile>
